<!DOCTYPE svg PUBLIC "-//W3C//DTD SVG 1.1//EN" "http://www.w3.org/Graphics/SVG/1.1/DTD/svg11.dtd">
<!-- Uploaded to: SVG Repo, www.svgrepo.com, Transformed by: SVG Repo Mixer Tools -->
<svg fill="#ffffff" height="100px" width="100px" version="1.1" id="Capa_1" xmlns="http://www.w3.org/2000/svg" xmlns:xlink="http://www.w3.org/1999/xlink" viewBox="0 0 290.142 290.142" xml:space="preserve" stroke="#ffffff" stroke-width="0.00290142">
<g id="SVGRepo_bgCarrier" stroke-width="0"/>
<g id="SVGRepo_tracerCarrier" stroke-linecap="round" stroke-linejoin="round"/>
<g id="SVGRepo_iconCarrier"> <g> <path id="path12266" d="M21.995,0.07c-10.354,0-18.848,8.493-18.848,18.848v152.307c0,10.354,8.494,18.846,18.848,18.846h118.076 c0,0.001,0,0.001,0,0.002v50c-0.003,0.168,0.003,0.335,0.018,0.502c-9.774,1.998-17.52,9.747-19.516,19.521 c-0.167-0.016-0.334-0.024-0.502-0.023h-115c-2.761-0.039-5.032,2.168-5.071,4.929c-0.039,2.761,2.168,5.032,4.929,5.071 c0.047,0.001,0.094,0.001,0.141,0h115c0.168,0.003,0.335-0.003,0.502-0.018c2.327,11.383,12.455,20.018,24.498,20.018 c12.045,0,22.174-8.638,24.498-20.023c0.167,0.016,0.334,0.024,0.502,0.023h115c2.761,0.039,5.032-2.168,5.071-4.929 c0.039-2.761-2.168-5.032-4.929-5.071c-0.047-0.001-0.094-0.001-0.141,0h-115c-0.168-0.003-0.335,0.003-0.502,0.018 c-1.998-9.774-9.747-17.52-19.521-19.516c0.016-0.167,0.024-0.334,0.023-0.502v-50c0-0.001,0-0.001,0-0.002h118.076 c10.354,0,18.848-8.491,18.848-18.846V18.918c0-10.354-8.494-18.848-18.848-18.848H21.995z M21.995,10.07h246.152 c4.987,0,8.848,3.86,8.848,8.848V150.07H13.147V18.918C13.147,13.93,17.008,10.07,21.995,10.07z M25.071,17.57 c-1.381,0-2.5,1.119-2.5,2.5v65.77c-0.02,1.381,1.084,2.516,2.465,2.535c1.381,0.02,2.516-1.084,2.535-2.465 c0-0.024,0-0.047,0-0.071V22.57H66.61c1.381,0.02,2.516-1.084,2.535-2.465c0.02-1.381-1.084-2.516-2.465-2.535 c-0.024,0-0.047,0-0.071,0H25.071z M13.147,160.07h263.848v11.154c0,4.988-3.86,8.846-8.848,8.846H21.995 c-4.987,0-8.848-3.858-8.848-8.846V160.07z M260.071,163.148c-3.823,0-6.923,3.099-6.924,6.922c0,3.824,3.099,6.923,6.922,6.924 c0,0,0.001,0,0.001,0c3.824,0,6.923-3.099,6.924-6.922c0,0,0-0.001,0-0.001C266.994,166.247,263.895,163.148,260.071,163.148z M145.071,250.072c8.343,0,15,6.657,15,15s-6.657,15-15,15s-15-6.657-15-15S136.728,250.072,145.071,250.072z M145.071,252.572 c-6.874,0-12.5,5.626-12.5,12.5c-0.02,1.381,1.084,2.516,2.465,2.535c1.381,0.02,2.516-1.084,2.535-2.465c0-0.024,0-0.047,0-0.071 c0-4.172,3.328-7.5,7.5-7.5c1.381,0.02,2.516-1.084,2.535-2.465c0.02-1.381-1.084-2.516-2.465-2.535 C145.118,252.572,145.095,252.572,145.071,252.572z"/> </g> </g>
</svg>