<?xml version="1.0"?>
<svg width="24" height="24" xmlns="http://www.w3.org/2000/svg" xmlns:svg="http://www.w3.org/2000/svg">
 <g class="layer">
  <title>Layer 1</title>
  <g id="SVGRepo_bgCarrier" stroke-width="0"/>
  <g id="SVGRepo_tracerCarrier" stroke-linecap="round" stroke-linejoin="round"/>
  <g id="SVGRepo_iconCarrier">
   <path clip-rule="evenodd" d="m12.01,3.31c-4.44,0 -8.05,3.7 -8.05,8.26c0,4.55 3.61,8.26 8.05,8.26c4.44,0 8.05,-3.7 8.05,-8.26c0,-4.55 -3.61,-8.26 -8.05,-8.26zm-9.44,8.26c0,-5.35 4.23,-9.69 9.44,-9.69c5.21,0 9.44,4.34 9.44,9.69c0,5.35 -4.23,9.69 -9.44,9.69c-5.21,0 -9.44,-4.34 -9.44,-9.69z" fill="#ffffff" fill-rule="evenodd" id="svg_1" transform="matrix(1 0 0 1 0 0)"/>
   <path d="m11.01,9.46c-0.12,0 -0.23,0.03 -0.33,0.1c-0.09,0.06 -0.17,0.15 -0.22,0.25c-0.04,0.11 -0.05,0.22 -0.03,0.33c0.03,0.11 0.09,0.21 0.17,0.29c0.08,0.08 0.19,0.14 0.3,0.16c0.12,0.02 0.24,0.01 0.35,-0.03c0.11,-0.05 0.2,-0.12 0.26,-0.21c0.07,-0.1 0.1,-0.2 0.1,-0.32c0,-0.16 -0.06,-0.29 -0.18,-0.4c-0.11,-0.11 -0.26,-0.17 -0.42,-0.17zm0.3,-5.15c2.68,0 2.74,2.04 1.33,2.72c-0.26,0.15 -0.48,0.35 -0.65,0.6c-0.16,0.25 -0.27,0.52 -0.31,0.81c0.28,0.11 0.54,0.29 0.73,0.52c2.18,-1.14 4.56,-0.69 4.56,1.36c0,2.57 -2.13,2.63 -2.82,1.27c-0.16,-0.25 -0.38,-0.47 -0.64,-0.63c-0.26,-0.16 -0.55,-0.26 -0.85,-0.29c-0.13,0.27 -0.31,0.51 -0.54,0.7c1.19,2.11 0.71,4.38 -1.42,4.38c-2.65,0 -2.72,-2.05 -1.31,-2.72c0.26,-0.16 0.48,-0.36 0.65,-0.6c0.17,-0.25 0.27,-0.52 0.32,-0.81c-0.3,-0.11 -0.55,-0.29 -0.75,-0.52c-2.19,1.14 -4.54,0.69 -4.54,-1.36c0,-2.57 2.11,-2.64 2.81,-1.28c0.16,0.25 0.37,0.47 0.63,0.62c0.26,0.16 0.54,0.26 0.85,0.3c0.11,-0.28 0.31,-0.51 0.54,-0.69c-1.18,-2.09 -0.71,-4.38 1.41,-4.38l0.01,0z" fill="#ffffff" id="svg_2"/>
   <circle cx="18.12" cy="18.45" fill="#212121" id="svg_4" r="4.77" stroke="#ffffff" stroke-width="1.2" transform="matrix(1 0 0 1 0 0)"/>
   <text fill="#ffffff" font-family="Fantasy" font-size="9" id="svg_5" stroke="#ffffff" stroke-width="0" text-anchor="middle" transform="matrix(0.99623 0 0 0.691445 3.00948 12.8738)" x="15.17" xml:space="preserve" y="11.52">M</text>
  </g>
 </g>
</svg>