<?xml version="1.0"?>
<svg width="24" height="24" xmlns="http://www.w3.org/2000/svg" xmlns:svg="http://www.w3.org/2000/svg">
 <g class="layer">
  <title>Layer 1</title>
  <g id="SVGRepo_bgCarrier" stroke-width="0"/>
  <g id="SVGRepo_tracerCarrier" stroke-linecap="round" stroke-linejoin="round"/>
  <g id="SVGRepo_iconCarrier">
   <circle cx="12.87" cy="12.29" fill="#212121" id="svg_4" r="8.64" stroke="#ffffff" stroke-width="1.2"/>
   <text fill="#ffffff" font-family="Fantasy" font-size="9" id="svg_5" stroke="#ffffff" stroke-width="0" text-anchor="middle" transform="matrix(2.46042 0 0 1.38266 -4.03217 22.6279)" x="7.09" xml:space="preserve" y="-4.22">A</text>
   <circle cx="4.95" cy="5.14" fill="#212121" id="svg_1" r="4.3" stroke="#ffffff" stroke-width="1.2" transform="matrix(1 0 0 1 0 0)"/>
   <path d="m4.95,4.82c-0.06,0 -0.11,0.01 -0.15,0.05c-0.04,0.03 -0.08,0.07 -0.1,0.12c-0.02,0.05 -0.02,0.11 -0.01,0.16c0.01,0.05 0.04,0.1 0.08,0.14c0.04,0.04 0.09,0.07 0.14,0.08c0.06,0.01 0.11,0 0.16,-0.01c0.05,-0.02 0.09,-0.06 0.12,-0.1c0.03,-0.05 0.05,-0.1 0.05,-0.16c0,-0.08 -0.03,-0.14 -0.08,-0.19c-0.05,-0.05 -0.12,-0.08 -0.19,-0.08zm0.14,-2.51c1.24,0 1.27,0.99 0.62,1.32c-0.12,0.07 -0.22,0.17 -0.3,0.29c-0.07,0.12 -0.13,0.25 -0.14,0.39c0.13,0.05 0.25,0.14 0.34,0.25c1.01,-0.55 2.12,-0.34 2.12,0.66c0,1.25 -0.99,1.28 -1.31,0.62c-0.07,-0.12 -0.18,-0.23 -0.3,-0.31c-0.12,-0.08 -0.26,-0.13 -0.39,-0.14c-0.06,0.13 -0.14,0.25 -0.25,0.34c0.55,1.03 0.33,2.13 -0.66,2.13c-1.23,0 -1.26,-1 -0.61,-1.32c0.12,-0.08 0.22,-0.18 0.3,-0.29c0.08,-0.12 0.13,-0.25 0.15,-0.39c-0.14,-0.05 -0.26,-0.14 -0.35,-0.25c-1.02,0.55 -2.11,0.34 -2.11,-0.66c0,-1.25 0.98,-1.28 1.3,-0.62c0.07,0.12 0.17,0.23 0.29,0.3c0.12,0.08 0.25,0.13 0.39,0.15c0.05,-0.14 0.14,-0.25 0.25,-0.34c-0.55,-1.02 -0.33,-2.13 0.65,-2.13l0,0l0,0z" fill="#ffffff" id="svg_2" transform="matrix(1 0 0 1 0 0)"/>
  </g>
 </g>
</svg>